#N canvas 1417 378 543 286 10;
#X floatatom 68 77 5 0 1 0 - - -, f 5;
#X obj 68 118 + 0.2;
#X floatatom 68 140 5 0 0 0 - - -, f 5;
#X obj 68 96 * 19.8;
#X floatatom 247 165 10 0 0 0 - - -, f 10;
#X obj 247 108 expr pow(2 \, $f1);
#X floatatom 356 164 5 0 0 0 - - -, f 5;
#X floatatom 247 49 5 0 1 0 - - -, f 5;
#X obj 247 130 * 0.2;
#X floatatom 213 81 5 0 0 0 - - -, f 5;
#X floatatom 270 90 5 0 0 0 - - -, f 5;
#X floatatom 309 139 5 0 0 0 - - -, f 5;
#X text 319 73 0....6.6439;
#X obj 247 68 * 6.6439;
#X connect 0 0 3 0;
#X connect 1 0 2 0;
#X connect 3 0 1 0;
#X connect 5 0 8 0;
#X connect 5 0 11 0;
#X connect 7 0 13 0;
#X connect 8 0 4 0;
#X connect 9 0 5 0;
#X connect 10 0 5 0;
#X connect 13 0 5 0;
