#N canvas 217 223 451 312 10;
#X obj 55 94 mtof;
#X floatatom 55 70 5 0 0 0 - - -;
#X floatatom 55 116 9 0 0 0 - - -;
#X text 285 32 16;
#X text 308 32 ....135;
#X floatatom 55 3 5 0 1 0 - - -;
#X floatatom 305 187 5 0 0 0 - - -;
#X floatatom 305 266 10 0 0 0 - - -;
#X obj 305 244 exp;
#X obj 305 206 * 10;
#X text 370 32 = 119;
#X text 286 86 20....137;
#X obj 55 23 * 117;
#X obj 55 45 + 20;
#X text 367 88 = 117;
#X obj 55 246 expr pow(2 \, $f1);
#X floatatom 55 276 9 0 0 0 - - -;
#X floatatom 55 228 5 0 0 0 - - -;
#X text 97 228 4.6....14.4=9.8;
#X floatatom 55 160 5 0 1 0 - - -;
#X obj 55 179 * 9.8;
#X obj 55 201 + 4.6;
#X text 103 163 0...1;
#X connect 0 0 2 0;
#X connect 1 0 0 0;
#X connect 5 0 12 0;
#X connect 6 0 9 0;
#X connect 8 0 7 0;
#X connect 9 0 8 0;
#X connect 12 0 13 0;
#X connect 13 0 1 0;
#X connect 15 0 16 0;
#X connect 17 0 15 0;
#X connect 19 0 20 0;
#X connect 20 0 21 0;
#X connect 21 0 17 0;
